<svg width="41" height="28" viewBox="0 0 41 28" fill="none" xmlns="http://www.w3.org/2000/svg">
<g filter="url(#filter0_d_1_344)">
<rect x="2" y="2" width="37" height="24" rx="3" fill="white"/>
</g>
<g clip-path="url(#clip0_1_344)">
<path d="M12.5706 10.2892C12.2777 10.627 11.8089 10.8934 11.3402 10.8554C11.2816 10.3987 11.5111 9.91342 11.7796 9.6137C12.0726 9.26641 12.5853 9.01903 13.0003 9C13.0491 9.47574 12.8587 9.94196 12.5706 10.2892ZM12.9954 10.9458C12.3167 10.9077 11.7357 11.3216 11.4134 11.3216C11.0862 11.3216 10.5931 10.9648 10.056 10.9743C9.35773 10.9838 8.70832 11.3692 8.35187 11.9829C7.61945 13.2103 8.16144 15.0276 8.86945 16.0266C9.21613 16.5214 9.63117 17.0637 10.178 17.0447C10.6956 17.0257 10.9007 16.7165 11.5257 16.7165C12.1556 16.7165 12.3362 17.0447 12.8831 17.0352C13.4495 17.0257 13.806 16.5404 14.1527 16.0457C14.5482 15.4843 14.7093 14.9372 14.7191 14.9087C14.7093 14.8991 13.6253 14.4948 13.6155 13.2769C13.6058 12.2588 14.47 11.7735 14.5091 11.745C14.0208 11.0409 13.2591 10.9648 12.9954 10.9458ZM16.9163 9.56613V16.9829H18.098V14.4472H19.7337C21.2278 14.4472 22.2777 13.4481 22.2777 12.0019C22.2777 10.5557 21.2474 9.56613 19.7728 9.56613H16.9163V9.56613ZM18.098 10.5366H19.4603C20.4857 10.5366 21.0716 11.0695 21.0716 12.0067C21.0716 12.9439 20.4857 13.4814 19.4554 13.4814H18.098V10.5366V10.5366ZM24.4359 17.04C25.178 17.04 25.8665 16.6736 26.179 16.0932H26.2034V16.9829H27.2972V13.2912C27.2972 12.2207 26.4183 11.5309 25.0657 11.5309C23.8109 11.5309 22.8831 12.2303 22.8489 13.1912H23.9134C24.0013 12.7345 24.4359 12.4348 25.0316 12.4348C25.7542 12.4348 26.1595 12.7631 26.1595 13.3673V13.7764L24.6849 13.862C23.3128 13.9429 22.5706 14.49 22.5706 15.4415C22.5706 16.4025 23.3372 17.04 24.4359 17.04ZM24.7532 16.1598C24.1234 16.1598 23.723 15.8649 23.723 15.4129C23.723 14.9467 24.1087 14.6755 24.846 14.6327L26.1595 14.5519V14.9705C26.1595 15.6651 25.554 16.1598 24.7532 16.1598ZM28.7571 19C29.9095 19 30.4515 18.5718 30.9251 17.2731L33.0003 11.6023H31.7991L30.4075 15.9838H30.3831L28.9915 11.6023H27.7562L29.7581 17.0019L29.6507 17.3302C29.47 17.8868 29.1771 18.1009 28.6546 18.1009C28.5618 18.1009 28.3812 18.0913 28.3079 18.0818V18.9715C28.3763 18.9905 28.6693 19 28.7571 19Z" fill="black"/>
</g>
<defs>
<filter id="filter0_d_1_344" x="0" y="0" width="41" height="28" filterUnits="userSpaceOnUse" color-interpolation-filters="sRGB">
<feFlood flood-opacity="0" result="BackgroundImageFix"/>
<feColorMatrix in="SourceAlpha" type="matrix" values="0 0 0 0 0 0 0 0 0 0 0 0 0 0 0 0 0 0 127 0" result="hardAlpha"/>
<feOffset/>
<feGaussianBlur stdDeviation="1"/>
<feComposite in2="hardAlpha" operator="out"/>
<feColorMatrix type="matrix" values="0 0 0 0 0 0 0 0 0 0 0 0 0 0 0 0 0 0 0.25 0"/>
<feBlend mode="normal" in2="BackgroundImageFix" result="effect1_dropShadow_1_344"/>
<feBlend mode="normal" in="SourceGraphic" in2="effect1_dropShadow_1_344" result="shape"/>
</filter>
<clipPath id="clip0_1_344">
<rect width="25" height="10" fill="white" transform="translate(8 9)"/>
</clipPath>
</defs>
</svg>
