<svg width="131" height="28" viewBox="0 0 131 28" fill="none" xmlns="http://www.w3.org/2000/svg">
<g filter="url(#filter0_d_188_381)">
<rect x="47" y="2" width="37" height="24" rx="3" fill="white"/>
</g>
<g clip-path="url(#clip0_188_381)">
<path d="M63.8333 17.9198H61.8082L63.0749 10.141H65.0999L63.8333 17.9198Z" fill="#00579F"/>
<path d="M71.1748 10.3312C70.7753 10.1738 70.1417 9.99999 69.3583 9.99999C67.3584 9.99999 65.9501 11.0592 65.9414 12.5735C65.9248 13.6907 66.9498 14.3113 67.7163 14.6838C68.4999 15.0645 68.7662 15.313 68.7662 15.6523C68.7582 16.1734 68.1331 16.4136 67.55 16.4136C66.7415 16.4136 66.3082 16.2898 65.6499 15.9998L65.3832 15.8755L65.0998 17.6217C65.5748 17.8366 66.4499 18.0274 67.3584 18.0357C69.4834 18.0357 70.8668 16.9929 70.8832 15.3792C70.8913 14.4937 70.3501 13.8151 69.1833 13.2607C68.4749 12.9048 68.0412 12.6648 68.0412 12.3006C68.0495 11.9695 68.408 11.6305 69.2076 11.6305C69.866 11.6138 70.3497 11.771 70.7162 11.9283L70.8993 12.0109L71.1748 10.3312Z" fill="#00579F"/>
<path d="M73.8664 15.164C74.0332 14.7172 74.6749 12.9876 74.6749 12.9876C74.6665 13.0042 74.8414 12.5325 74.9414 12.2429L75.0829 12.9131C75.0829 12.9131 75.4664 14.7751 75.5497 15.164C75.2332 15.164 74.2664 15.164 73.8664 15.164ZM76.3662 10.141H74.7997C74.3167 10.141 73.9497 10.2816 73.7412 10.7864L70.7331 17.9197H72.858C72.858 17.9197 73.2079 16.9596 73.2831 16.7528C73.5162 16.7528 75.5833 16.7528 75.8832 16.7528C75.9414 17.0259 76.1249 17.9197 76.1249 17.9197H78L76.3662 10.141Z" fill="#00579F"/>
<path d="M60.1166 10.141L58.1333 15.4454L57.9166 14.3696C57.5499 13.1283 56.3999 11.7796 55.1166 11.109L56.9333 17.9115H59.0748L62.2581 10.141H60.1166Z" fill="#00579F"/>
<path d="M56.2916 10.141H53.0333L53 10.2982C55.5417 10.9437 57.225 12.4997 57.9166 14.3699L57.2083 10.7949C57.0917 10.2981 56.7333 10.1574 56.2916 10.141Z" fill="#FAA61A"/>
</g>
<g filter="url(#filter1_d_188_381)">
<rect x="2" y="2" width="37" height="24" rx="3" fill="white"/>
</g>
<g clip-path="url(#clip1_188_381)">
<path d="M18.6522 14.6132H8.5V17.994H18.6522V14.6132Z" fill="#84B740"/>
<path d="M18.6522 10H8.5V13.3838H18.6522V10Z" fill="#259BD6"/>
<path d="M28.8044 17.307L28.7592 17.316C28.6025 17.3461 28.5452 17.3582 28.4307 17.3582C28.1654 17.3582 27.8519 17.2226 27.8519 16.5838C27.8519 16.2554 27.9062 15.8185 28.4005 15.8185H28.4035C28.4879 15.8245 28.5844 15.8335 28.7653 15.8878L28.8044 15.8998V17.307ZM28.8858 14.122L28.8044 14.1371V15.3183L28.7321 15.2972L28.711 15.2911C28.6296 15.267 28.4427 15.2128 28.2619 15.2128C27.2732 15.2128 27.0652 15.9601 27.0652 16.5868C27.0652 17.4456 27.5475 17.9397 28.3885 17.9397C28.7442 17.9397 29.0064 17.9036 29.2717 17.8162C29.5158 17.7379 29.6032 17.6264 29.6032 17.3883V13.9985C29.3681 14.0407 29.124 14.0829 28.8858 14.122Z" fill="#27292D"/>
<path d="M31.7434 17.3281L31.7012 17.3401L31.5505 17.3793C31.4088 17.4155 31.2822 17.4365 31.1858 17.4365C30.9537 17.4365 30.815 17.322 30.815 17.1262C30.815 16.9996 30.8723 16.7857 31.2521 16.7857H31.7434V17.3281ZM31.3968 15.1977C31.0923 15.1977 30.7789 15.252 30.39 15.3725L30.1368 15.4478L30.2212 16.0203L30.4684 15.939C30.7276 15.8546 31.0501 15.8004 31.2913 15.8004C31.3998 15.8004 31.7314 15.8004 31.7314 16.159V16.3156H31.2702C30.4292 16.3156 30.0403 16.5838 30.0403 17.1593C30.0403 17.6505 30.399 17.9458 31.0019 17.9458C31.1888 17.9458 31.448 17.9096 31.6711 17.8554L31.6831 17.8524L31.6952 17.8554L31.7706 17.8674C32.0057 17.9096 32.2498 17.9518 32.488 17.997V16.1168C32.488 15.5081 32.1202 15.1977 31.3968 15.1977Z" fill="#27292D"/>
<path d="M25.8866 17.3281L25.8444 17.3401L25.6936 17.3793C25.552 17.4155 25.4284 17.4365 25.3289 17.4365C25.0968 17.4365 24.9582 17.322 24.9582 17.1262C24.9582 16.9996 25.0154 16.7857 25.3922 16.7857H25.8835L25.8866 17.3281ZM25.5429 15.1977C25.2355 15.1977 24.925 15.252 24.5361 15.3725L24.2829 15.4478L24.3673 16.0203L24.6145 15.939C24.8738 15.8546 25.1963 15.8004 25.4374 15.8004C25.5459 15.8004 25.8775 15.8004 25.8775 16.159V16.3156H25.4163C24.5753 16.3156 24.1835 16.5838 24.1835 17.1593C24.1835 17.6505 24.5422 17.9458 25.1481 17.9458C25.3349 17.9458 25.5942 17.9096 25.8172 17.8554L25.8293 17.8524L25.8413 17.8554L25.9137 17.8674C26.1518 17.9096 26.393 17.9518 26.6311 18V16.1198C26.6341 15.5051 26.2664 15.1977 25.5429 15.1977Z" fill="#27292D"/>
<path d="M22.7125 15.2038C22.3297 15.2038 22.0132 15.3303 21.8956 15.3846L21.8655 15.3996L21.8383 15.3785C21.6756 15.261 21.4374 15.2008 21.1059 15.2008C20.8135 15.2008 20.5392 15.2429 20.2408 15.3303C19.9845 15.4087 19.8851 15.5322 19.8851 15.7642V17.9126H20.6869V15.9269L20.7261 15.9149C20.8888 15.8606 20.9853 15.8516 21.0787 15.8516C21.3108 15.8516 21.4284 15.9751 21.4284 16.2162V17.9156H22.2182V16.1831C22.2182 16.0806 22.1971 16.0203 22.194 16.0083L22.1669 15.9571L22.2212 15.933C22.3417 15.8787 22.4744 15.8516 22.613 15.8516C22.7728 15.8516 22.9627 15.9149 22.9627 16.2162V17.9156H23.7494V16.1379C23.7494 15.5081 23.4118 15.2038 22.7125 15.2038Z" fill="#27292D"/>
<path d="M31.1526 12.2057C31.035 12.2057 30.8391 12.1936 30.6853 12.1635L30.6401 12.1544V10.9944C30.6401 10.8979 30.622 10.8377 30.619 10.8286L30.5949 10.7804L30.6462 10.7593C30.6582 10.7533 30.6703 10.7503 30.6853 10.7443L30.6944 10.7382C30.7125 10.7322 30.7306 10.7262 30.7486 10.7202C30.7577 10.7171 30.7637 10.7141 30.7697 10.7141C30.9476 10.6659 31.1104 10.6719 31.1827 10.6659H31.1857C31.677 10.6659 31.7343 11.1028 31.7343 11.4313C31.7313 12.0701 31.4148 12.2057 31.1526 12.2057ZM31.1495 10C31.1435 10 31.1345 10 31.1284 10C30.6673 10 30.194 10.1266 30.0252 10.3736C29.9348 10.4942 29.8835 10.6448 29.8805 10.8226V12.0188C29.8805 12.1213 29.8594 12.1605 29.8564 12.1695L29.8293 12.2207H28.3734V11.3891H28.3703C28.3523 10.5122 27.8338 10.0301 27.0832 10.0301H26.9958H26.3507C26.3206 10.2441 26.2965 10.3947 26.2663 10.6087H26.9958C27.3786 10.6087 27.5806 10.9341 27.5806 11.4343V12.2719L27.5293 12.2448C27.5203 12.2418 27.457 12.2207 27.3575 12.2207H26.0975C26.0734 12.3804 26.0433 12.5883 26.0101 12.7962H29.8835C30.0162 12.7691 30.1699 12.745 30.3025 12.7239C30.4985 12.8203 30.8632 12.8716 31.1134 12.8716C31.9544 12.8716 32.5 12.3081 32.5 11.4403C32.4969 10.5815 31.9694 10.0181 31.1495 10Z" fill="#27292D"/>
<path d="M24.3583 13.1488H24.3945C25.2355 13.1488 25.6273 12.8716 25.6273 12.1876C25.6273 11.6964 25.2686 11.3047 24.6658 11.3047H23.8911C23.659 11.3047 23.5203 11.1721 23.5203 10.9492C23.5203 10.7985 23.5776 10.6117 23.9574 10.6117H25.6515C25.6876 10.3917 25.7057 10.2531 25.7389 10.0331H23.9785C23.1586 10.0331 22.7457 10.3767 22.7457 10.9492C22.7457 11.5156 23.1044 11.8109 23.7072 11.8109H24.4819C24.714 11.8109 24.8527 11.9947 24.8527 12.1876C24.8527 12.3141 24.7954 12.5763 24.4186 12.5763H24.289L21.8082 12.5702H21.3561C20.9732 12.5702 20.705 12.3533 20.705 11.8501V11.5036C20.705 10.9793 20.913 10.6539 21.3561 10.6539H22.0916C22.1247 10.4309 22.1458 10.2893 22.176 10.0783H21.2596H21.1722C20.4216 10.0783 19.9032 10.5815 19.8851 11.4584V11.4915V11.8501C19.9032 12.7269 20.4216 13.1458 21.1722 13.1458H21.2596H21.9047L23.249 13.1488H24.0509H24.3583Z" fill="#27292D"/>
</g>
<g filter="url(#filter2_d_188_381)">
<rect x="92" y="2" width="37" height="24" rx="3" fill="white"/>
</g>
<g clip-path="url(#clip2_188_381)">
<path d="M104.444 21.4671V20.4716C104.444 20.0908 104.215 19.8415 103.824 19.8415C103.628 19.8415 103.415 19.9072 103.269 20.1237C103.154 19.942 102.991 19.8415 102.746 19.8415C102.582 19.8415 102.419 19.8917 102.289 20.0734V19.8744H101.947V21.4671H102.289V20.5876C102.289 20.3054 102.436 20.172 102.664 20.172C102.892 20.172 103.006 20.3209 103.006 20.5876V21.4671H103.348V20.5876C103.348 20.3054 103.512 20.172 103.723 20.172C103.951 20.172 104.065 20.3209 104.065 20.5876V21.4671H104.444ZM109.521 19.8744H108.965V19.393H108.623V19.8744H108.313V20.1894H108.623V20.9201C108.623 21.2854 108.77 21.5 109.161 21.5C109.308 21.5 109.471 21.4497 109.585 21.384L109.486 21.0844C109.388 21.1501 109.274 21.1675 109.192 21.1675C109.028 21.1675 108.964 21.067 108.964 20.9027V20.1894H109.519V19.8744H109.521ZM112.426 19.8396C112.23 19.8396 112.099 19.9401 112.017 20.0715V19.8724H111.675V21.4652H112.017V20.5683C112.017 20.3035 112.132 20.1527 112.344 20.1527C112.409 20.1527 112.491 20.1701 112.557 20.1856L112.656 19.8531C112.588 19.8396 112.491 19.8396 112.426 19.8396ZM108.036 20.0058C107.872 19.8898 107.644 19.8396 107.399 19.8396C107.007 19.8396 106.746 20.0387 106.746 20.3537C106.746 20.6186 106.942 20.7693 107.285 20.8176L107.448 20.835C107.627 20.8679 107.726 20.9182 107.726 21.0013C107.726 21.1173 107.594 21.2004 107.366 21.2004C107.138 21.2004 106.957 21.1173 106.843 21.0341L106.68 21.299C106.859 21.4323 107.104 21.4981 107.349 21.4981C107.806 21.4981 108.068 21.2816 108.068 20.9839C108.068 20.7017 107.855 20.5528 107.53 20.5026L107.366 20.4852C107.22 20.4678 107.106 20.4349 107.106 20.3363C107.106 20.2204 107.22 20.1546 107.401 20.1546C107.596 20.1546 107.792 20.2378 107.891 20.288L108.036 20.0058ZM117.142 19.8396C116.946 19.8396 116.815 19.9401 116.733 20.0715V19.8724H116.391V21.4652H116.733V20.5683C116.733 20.3035 116.847 20.1527 117.06 20.1527C117.125 20.1527 117.207 20.1701 117.273 20.1856L117.372 19.857C117.306 19.8396 117.209 19.8396 117.142 19.8396ZM112.769 20.6707C112.769 21.1521 113.096 21.5 113.601 21.5C113.83 21.5 113.993 21.4497 114.157 21.3183L113.993 21.0361C113.862 21.1366 113.733 21.1849 113.584 21.1849C113.307 21.1849 113.111 20.9858 113.111 20.6707C113.111 20.3711 113.307 20.172 113.584 20.1566C113.731 20.1566 113.862 20.2068 113.993 20.3054L114.157 20.0232C113.993 19.8898 113.83 19.8415 113.601 19.8415C113.096 19.8396 112.769 20.1894 112.769 20.6707ZM115.935 20.6707V19.8744H115.592V20.0734C115.478 19.9246 115.315 19.8415 115.102 19.8415C114.661 19.8415 114.318 20.1894 114.318 20.6707C114.318 21.1521 114.661 21.5 115.102 21.5C115.33 21.5 115.493 21.4169 115.592 21.268V21.4671H115.935V20.6707ZM114.678 20.6707C114.678 20.3885 114.856 20.1566 115.151 20.1566C115.429 20.1566 115.625 20.3731 115.625 20.6707C115.625 20.953 115.429 21.1849 115.151 21.1849C114.858 21.1675 114.678 20.951 114.678 20.6707ZM110.582 19.8396C110.125 19.8396 109.798 20.172 109.798 20.6688C109.798 21.1675 110.125 21.4981 110.599 21.4981C110.827 21.4981 111.055 21.4323 111.236 21.2816L111.072 21.0322C110.941 21.1327 110.778 21.1984 110.616 21.1984C110.403 21.1984 110.192 21.0979 110.143 20.8176H111.301C111.301 20.7674 111.301 20.7345 111.301 20.6843C111.316 20.172 111.021 19.8396 110.582 19.8396ZM110.582 20.1392C110.795 20.1392 110.941 20.2725 110.973 20.52H110.158C110.19 20.3054 110.336 20.1392 110.582 20.1392ZM119.085 20.6707V19.2442H118.743V20.0734C118.629 19.9246 118.465 19.8415 118.253 19.8415C117.811 19.8415 117.469 20.1894 117.469 20.6707C117.469 21.1521 117.811 21.5 118.253 21.5C118.481 21.5 118.644 21.4169 118.743 21.268V21.4671H119.085V20.6707ZM117.828 20.6707C117.828 20.3885 118.007 20.1566 118.302 20.1566C118.58 20.1566 118.775 20.3731 118.775 20.6707C118.775 20.953 118.58 21.1849 118.302 21.1849C118.007 21.1675 117.828 20.951 117.828 20.6707ZM106.37 20.6707V19.8744H106.028V20.0734C105.914 19.9246 105.75 19.8415 105.537 19.8415C105.096 19.8415 104.754 20.1894 104.754 20.6707C104.754 21.1521 105.096 21.5 105.537 21.5C105.765 21.5 105.929 21.4169 106.028 21.268V21.4671H106.37V20.6707ZM105.098 20.6707C105.098 20.3885 105.277 20.1566 105.571 20.1566C105.849 20.1566 106.045 20.3731 106.045 20.6707C106.045 20.953 105.849 21.1849 105.571 21.1849C105.277 21.1675 105.098 20.951 105.098 20.6707Z" fill="black"/>
<path d="M113.063 7.77771H107.922V17.1682H113.063V7.77771Z" fill="#FF5A00"/>
<path d="M108.264 12.4729C108.264 10.5651 109.146 8.87178 110.5 7.77771C109.504 6.98131 108.247 6.5 106.876 6.5C103.628 6.5 101 9.17139 101 12.4729C101 15.7745 103.628 18.4459 106.876 18.4459C108.247 18.4459 109.504 17.9646 110.5 17.1682C109.144 16.0896 108.264 14.3808 108.264 12.4729Z" fill="#EB001B"/>
<path d="M120 12.4729C120 15.7745 117.372 18.4459 114.124 18.4459C112.753 18.4459 111.496 17.9646 110.5 17.1682C111.871 16.0722 112.736 14.3808 112.736 12.4729C112.736 10.5651 111.854 8.87178 110.5 7.77771C111.494 6.98131 112.751 6.5 114.122 6.5C117.372 6.5 120 9.18879 120 12.4729Z" fill="#F79E1B"/>
</g>
<defs>
<filter id="filter0_d_188_381" x="45" y="0" width="41" height="28" filterUnits="userSpaceOnUse" color-interpolation-filters="sRGB">
<feFlood flood-opacity="0" result="BackgroundImageFix"/>
<feColorMatrix in="SourceAlpha" type="matrix" values="0 0 0 0 0 0 0 0 0 0 0 0 0 0 0 0 0 0 127 0" result="hardAlpha"/>
<feOffset/>
<feGaussianBlur stdDeviation="1"/>
<feComposite in2="hardAlpha" operator="out"/>
<feColorMatrix type="matrix" values="0 0 0 0 0 0 0 0 0 0 0 0 0 0 0 0 0 0 0.25 0"/>
<feBlend mode="normal" in2="BackgroundImageFix" result="effect1_dropShadow_188_381"/>
<feBlend mode="normal" in="SourceGraphic" in2="effect1_dropShadow_188_381" result="shape"/>
</filter>
<filter id="filter1_d_188_381" x="0" y="0" width="41" height="28" filterUnits="userSpaceOnUse" color-interpolation-filters="sRGB">
<feFlood flood-opacity="0" result="BackgroundImageFix"/>
<feColorMatrix in="SourceAlpha" type="matrix" values="0 0 0 0 0 0 0 0 0 0 0 0 0 0 0 0 0 0 127 0" result="hardAlpha"/>
<feOffset/>
<feGaussianBlur stdDeviation="1"/>
<feComposite in2="hardAlpha" operator="out"/>
<feColorMatrix type="matrix" values="0 0 0 0 0 0 0 0 0 0 0 0 0 0 0 0 0 0 0.25 0"/>
<feBlend mode="normal" in2="BackgroundImageFix" result="effect1_dropShadow_188_381"/>
<feBlend mode="normal" in="SourceGraphic" in2="effect1_dropShadow_188_381" result="shape"/>
</filter>
<filter id="filter2_d_188_381" x="90" y="0" width="41" height="28" filterUnits="userSpaceOnUse" color-interpolation-filters="sRGB">
<feFlood flood-opacity="0" result="BackgroundImageFix"/>
<feColorMatrix in="SourceAlpha" type="matrix" values="0 0 0 0 0 0 0 0 0 0 0 0 0 0 0 0 0 0 127 0" result="hardAlpha"/>
<feOffset/>
<feGaussianBlur stdDeviation="1"/>
<feComposite in2="hardAlpha" operator="out"/>
<feColorMatrix type="matrix" values="0 0 0 0 0 0 0 0 0 0 0 0 0 0 0 0 0 0 0.25 0"/>
<feBlend mode="normal" in2="BackgroundImageFix" result="effect1_dropShadow_188_381"/>
<feBlend mode="normal" in="SourceGraphic" in2="effect1_dropShadow_188_381" result="shape"/>
</filter>
<clipPath id="clip0_188_381">
<rect width="25" height="8.03571" fill="white" transform="translate(53 10)"/>
</clipPath>
<clipPath id="clip1_188_381">
<rect width="24" height="8" fill="white" transform="translate(8.5 10)"/>
</clipPath>
<clipPath id="clip2_188_381">
<rect width="19" height="15" fill="white" transform="translate(101 6.5)"/>
</clipPath>
</defs>
</svg>
