<svg width="41" height="28" viewBox="0 0 41 28" fill="none" xmlns="http://www.w3.org/2000/svg">
<g filter="url(#filter0_d_174_457)">
<rect x="2" y="2" width="37" height="24" rx="3" fill="white"/>
</g>
<path d="M31.3 6.8H9.7C9.03738 6.8 8.5 7.33738 8.5 8V20C8.5 20.6626 9.03738 21.2 9.7 21.2H31.3C31.9626 21.2 32.5 20.6626 32.5 20V8C32.5 7.33738 31.9626 6.8 31.3 6.8ZM10.3 19.4V17C11.6256 17 12.7 18.0744 12.7 19.4H10.3ZM10.3 11V8.6H12.7C12.7 9.92563 11.6256 11 10.3 11ZM20.5 17.6C18.8429 17.6 17.5 15.9879 17.5 14C17.5 12.0118 18.8433 10.4 20.5 10.4C22.1568 10.4 23.5 12.0118 23.5 14C23.5 15.9886 22.1564 17.6 20.5 17.6ZM30.7 19.4H28.3C28.3 18.0744 29.3744 17 30.7 17V19.4ZM30.7 11C29.3744 11 28.3 9.92563 28.3 8.6H30.7V11Z" fill="#262626"/>
<defs>
<filter id="filter0_d_174_457" x="0" y="0" width="41" height="28" filterUnits="userSpaceOnUse" color-interpolation-filters="sRGB">
<feFlood flood-opacity="0" result="BackgroundImageFix"/>
<feColorMatrix in="SourceAlpha" type="matrix" values="0 0 0 0 0 0 0 0 0 0 0 0 0 0 0 0 0 0 127 0" result="hardAlpha"/>
<feOffset/>
<feGaussianBlur stdDeviation="1"/>
<feComposite in2="hardAlpha" operator="out"/>
<feColorMatrix type="matrix" values="0 0 0 0 0 0 0 0 0 0 0 0 0 0 0 0 0 0 0.25 0"/>
<feBlend mode="normal" in2="BackgroundImageFix" result="effect1_dropShadow_174_457"/>
<feBlend mode="normal" in="SourceGraphic" in2="effect1_dropShadow_174_457" result="shape"/>
</filter>
</defs>
</svg>
