<svg width="41" height="28" viewBox="0 0 41 28" fill="none" xmlns="http://www.w3.org/2000/svg">
<g filter="url(#filter0_d_1_385)">
<rect x="2" y="2" width="37" height="24" rx="3" fill="white"/>
</g>
<g clip-path="url(#clip0_1_385)">
<path d="M18.6522 14.6132H8.5V17.994H18.6522V14.6132Z" fill="#84B740"/>
<path d="M18.6522 10H8.5V13.3838H18.6522V10Z" fill="#259BD6"/>
<path d="M28.8044 17.307L28.7592 17.316C28.6025 17.3461 28.5452 17.3582 28.4307 17.3582C28.1654 17.3582 27.8519 17.2226 27.8519 16.5838C27.8519 16.2554 27.9062 15.8185 28.4005 15.8185H28.4035C28.4879 15.8245 28.5844 15.8335 28.7653 15.8878L28.8044 15.8998V17.307ZM28.8858 14.122L28.8044 14.1371V15.3183L28.7321 15.2972L28.711 15.2911C28.6296 15.267 28.4427 15.2128 28.2619 15.2128C27.2732 15.2128 27.0652 15.9601 27.0652 16.5868C27.0652 17.4456 27.5475 17.9397 28.3885 17.9397C28.7442 17.9397 29.0064 17.9036 29.2717 17.8162C29.5158 17.7379 29.6032 17.6264 29.6032 17.3883V13.9985C29.3681 14.0407 29.124 14.0829 28.8858 14.122Z" fill="#27292D"/>
<path d="M31.7434 17.3281L31.7012 17.3401L31.5505 17.3793C31.4088 17.4155 31.2822 17.4365 31.1857 17.4365C30.9536 17.4365 30.815 17.322 30.815 17.1262C30.815 16.9996 30.8722 16.7857 31.252 16.7857H31.7434V17.3281ZM31.3967 15.1977C31.0923 15.1977 30.7788 15.252 30.3899 15.3725L30.1367 15.4478L30.2211 16.0203L30.4683 15.939C30.7275 15.8546 31.0501 15.8004 31.2912 15.8004C31.3997 15.8004 31.7313 15.8004 31.7313 16.159V16.3156H31.2701C30.4291 16.3156 30.0403 16.5838 30.0403 17.1593C30.0403 17.6505 30.399 17.9458 31.0019 17.9458C31.1887 17.9458 31.448 17.9096 31.671 17.8554L31.6831 17.8524L31.6951 17.8554L31.7705 17.8674C32.0056 17.9096 32.2498 17.9518 32.4879 17.997V16.1168C32.4879 15.5081 32.1202 15.1977 31.3967 15.1977Z" fill="#27292D"/>
<path d="M25.8866 17.3281L25.8444 17.3401L25.6936 17.3793C25.552 17.4155 25.4284 17.4365 25.3289 17.4365C25.0968 17.4365 24.9582 17.322 24.9582 17.1262C24.9582 16.9996 25.0154 16.7857 25.3922 16.7857H25.8835L25.8866 17.3281ZM25.5429 15.1977C25.2355 15.1977 24.925 15.252 24.5361 15.3725L24.2829 15.4478L24.3673 16.0203L24.6145 15.939C24.8738 15.8546 25.1963 15.8004 25.4374 15.8004C25.5459 15.8004 25.8775 15.8004 25.8775 16.159V16.3156H25.4163C24.5753 16.3156 24.1835 16.5838 24.1835 17.1593C24.1835 17.6505 24.5422 17.9458 25.1481 17.9458C25.3349 17.9458 25.5942 17.9096 25.8172 17.8554L25.8293 17.8524L25.8413 17.8554L25.9137 17.8674C26.1518 17.9096 26.393 17.9518 26.6311 18V16.1198C26.6341 15.5051 26.2664 15.1977 25.5429 15.1977Z" fill="#27292D"/>
<path d="M22.7124 15.2038C22.3296 15.2038 22.0131 15.3303 21.8956 15.3846L21.8654 15.3996L21.8383 15.3785C21.6755 15.261 21.4374 15.2008 21.1058 15.2008C20.8134 15.2008 20.5391 15.2429 20.2407 15.3303C19.9845 15.4087 19.885 15.5322 19.885 15.7642V17.9126H20.6868V15.9269L20.726 15.9149C20.8888 15.8606 20.9852 15.8516 21.0787 15.8516C21.3108 15.8516 21.4283 15.9751 21.4283 16.2162V17.9156H22.2181V16.1831C22.2181 16.0806 22.197 16.0203 22.194 16.0083L22.1668 15.9571L22.2211 15.933C22.3417 15.8787 22.4743 15.8516 22.613 15.8516C22.7727 15.8516 22.9626 15.9149 22.9626 16.2162V17.9156H23.7494V16.1379C23.7494 15.5081 23.4118 15.2038 22.7124 15.2038Z" fill="#27292D"/>
<path d="M31.1526 12.2057C31.035 12.2057 30.8391 12.1936 30.6853 12.1635L30.6401 12.1544V10.9944C30.6401 10.8979 30.622 10.8377 30.619 10.8286L30.5949 10.7804L30.6462 10.7593C30.6582 10.7533 30.6703 10.7503 30.6853 10.7443L30.6944 10.7382C30.7125 10.7322 30.7306 10.7262 30.7486 10.7202C30.7577 10.7171 30.7637 10.7141 30.7697 10.7141C30.9476 10.6659 31.1104 10.6719 31.1827 10.6659H31.1857C31.677 10.6659 31.7343 11.1028 31.7343 11.4313C31.7313 12.0701 31.4148 12.2057 31.1526 12.2057ZM31.1495 10C31.1435 10 31.1345 10 31.1284 10C30.6673 10 30.194 10.1266 30.0252 10.3736C29.9348 10.4942 29.8835 10.6448 29.8805 10.8226V12.0188C29.8805 12.1213 29.8594 12.1605 29.8564 12.1695L29.8293 12.2207H28.3734V11.3891H28.3703C28.3523 10.5122 27.8338 10.0301 27.0832 10.0301H26.9958H26.3507C26.3206 10.2441 26.2965 10.3947 26.2663 10.6087H26.9958C27.3786 10.6087 27.5806 10.9341 27.5806 11.4343V12.2719L27.5293 12.2448C27.5203 12.2418 27.457 12.2207 27.3575 12.2207H26.0975C26.0734 12.3804 26.0433 12.5883 26.0101 12.7962H29.8835C30.0162 12.7691 30.1699 12.745 30.3025 12.7239C30.4985 12.8203 30.8632 12.8716 31.1134 12.8716C31.9544 12.8716 32.5 12.3081 32.5 11.4403C32.4969 10.5815 31.9694 10.0181 31.1495 10Z" fill="#27292D"/>
<path d="M24.3583 13.1488H24.3944C25.2354 13.1488 25.6273 12.8716 25.6273 12.1876C25.6273 11.6964 25.2686 11.3047 24.6657 11.3047H23.891C23.6589 11.3047 23.5203 11.1721 23.5203 10.9492C23.5203 10.7985 23.5775 10.6117 23.9574 10.6117H25.6514C25.6876 10.3917 25.7057 10.2531 25.7388 10.0331H23.9785C23.1586 10.0331 22.7456 10.3767 22.7456 10.9492C22.7456 11.5156 23.1043 11.8109 23.7072 11.8109H24.4818C24.7139 11.8109 24.8526 11.9947 24.8526 12.1876C24.8526 12.3141 24.7953 12.5763 24.4185 12.5763H24.2889L21.8081 12.5702H21.356C20.9732 12.5702 20.7049 12.3533 20.7049 11.8501V11.5036C20.7049 10.9793 20.9129 10.6539 21.356 10.6539H22.0915C22.1246 10.4309 22.1457 10.2893 22.1759 10.0783H21.2595H21.1721C20.4216 10.0783 19.9031 10.5815 19.885 11.4584V11.4915V11.8501C19.9031 12.7269 20.4216 13.1458 21.1721 13.1458H21.2595H21.9046L23.249 13.1488H24.0508H24.3583Z" fill="#27292D"/>
</g>
<defs>
<filter id="filter0_d_1_385" x="0" y="0" width="41" height="28" filterUnits="userSpaceOnUse" color-interpolation-filters="sRGB">
<feFlood flood-opacity="0" result="BackgroundImageFix"/>
<feColorMatrix in="SourceAlpha" type="matrix" values="0 0 0 0 0 0 0 0 0 0 0 0 0 0 0 0 0 0 127 0" result="hardAlpha"/>
<feOffset/>
<feGaussianBlur stdDeviation="1"/>
<feComposite in2="hardAlpha" operator="out"/>
<feColorMatrix type="matrix" values="0 0 0 0 0 0 0 0 0 0 0 0 0 0 0 0 0 0 0.25 0"/>
<feBlend mode="normal" in2="BackgroundImageFix" result="effect1_dropShadow_1_385"/>
<feBlend mode="normal" in="SourceGraphic" in2="effect1_dropShadow_1_385" result="shape"/>
</filter>
<clipPath id="clip0_1_385">
<rect width="24" height="8" fill="white" transform="translate(8.5 10)"/>
</clipPath>
</defs>
</svg>
