<svg width="41" height="28" viewBox="0 0 41 28" fill="none" xmlns="http://www.w3.org/2000/svg">
<g filter="url(#filter0_d_1_397)">
<rect x="2" y="2" width="37" height="24" rx="3" fill="white"/>
</g>
<g clip-path="url(#clip0_1_397)">
<path d="M14.4437 21.4671V20.4716C14.4437 20.0908 14.2155 19.8415 13.8238 19.8415C13.628 19.8415 13.415 19.9072 13.2686 20.1237C13.1545 19.942 12.991 19.8415 12.7457 19.8415C12.5821 19.8415 12.4186 19.8917 12.2893 20.0734V19.8744H11.947V21.4671H12.2893V20.5876C12.2893 20.3054 12.4357 20.172 12.6639 20.172C12.8921 20.172 13.0062 20.3209 13.0062 20.5876V21.4671H13.3484V20.5876C13.3484 20.3054 13.512 20.172 13.723 20.172C13.9512 20.172 14.0653 20.3209 14.0653 20.5876V21.4671H14.4437ZM19.5208 19.8744H18.9655V19.393H18.6233V19.8744H18.3133V20.1894H18.6233V20.9201C18.6233 21.2854 18.7697 21.5 19.1614 21.5C19.3078 21.5 19.4713 21.4497 19.5854 21.384L19.4866 21.0844C19.3877 21.1501 19.2736 21.1675 19.1918 21.1675C19.0283 21.1675 18.9636 21.067 18.9636 20.9027V20.1894H19.5189V19.8744H19.5208ZM22.4263 19.8396C22.2304 19.8396 22.0992 19.9401 22.0175 20.0715V19.8724H21.6752V21.4652H22.0175V20.5683C22.0175 20.3035 22.1316 20.1527 22.3445 20.1527C22.4092 20.1527 22.491 20.1701 22.5575 20.1856L22.6564 19.8531C22.5879 19.8396 22.491 19.8396 22.4263 19.8396ZM18.0357 20.0058C17.8722 19.8898 17.644 19.8396 17.3987 19.8396C17.007 19.8396 16.7465 20.0387 16.7465 20.3537C16.7465 20.6186 16.9423 20.7693 17.2846 20.8176L17.4481 20.835C17.6269 20.8679 17.7257 20.9182 17.7257 21.0013C17.7257 21.1173 17.5945 21.2004 17.3664 21.2004C17.1382 21.2004 16.9575 21.1173 16.8434 21.0341L16.6799 21.299C16.8587 21.4323 17.1039 21.4981 17.3492 21.4981C17.8056 21.4981 18.068 21.2816 18.068 20.9839C18.068 20.7017 17.855 20.5528 17.5299 20.5026L17.3664 20.4852C17.2199 20.4678 17.1058 20.4349 17.1058 20.3363C17.1058 20.2204 17.2199 20.1546 17.4006 20.1546C17.5964 20.1546 17.7923 20.2378 17.8912 20.288L18.0357 20.0058ZM27.1421 19.8396C26.9462 19.8396 26.815 19.9401 26.7333 20.0715V19.8724H26.391V21.4652H26.7333V20.5683C26.7333 20.3035 26.8473 20.1527 27.0603 20.1527C27.125 20.1527 27.2067 20.1701 27.2733 20.1856L27.3722 19.857C27.3056 19.8396 27.2086 19.8396 27.1421 19.8396ZM22.7686 20.6707C22.7686 21.1521 23.0956 21.5 23.6014 21.5C23.8296 21.5 23.9932 21.4497 24.1567 21.3183L23.9932 21.0361C23.862 21.1366 23.7326 21.1849 23.5843 21.1849C23.3067 21.1849 23.1109 20.9858 23.1109 20.6707C23.1109 20.3711 23.3067 20.172 23.5843 20.1566C23.7307 20.1566 23.862 20.2068 23.9932 20.3054L24.1567 20.0232C23.9932 19.8898 23.8296 19.8415 23.6014 19.8415C23.0956 19.8396 22.7686 20.1894 22.7686 20.6707ZM25.9346 20.6707V19.8744H25.5923V20.0734C25.4782 19.9246 25.3147 19.8415 25.1017 19.8415C24.6606 19.8415 24.3183 20.1894 24.3183 20.6707C24.3183 21.1521 24.6606 21.5 25.1017 21.5C25.3299 21.5 25.4935 21.4169 25.5923 21.268V21.4671H25.9346V20.6707ZM24.6777 20.6707C24.6777 20.3885 24.8564 20.1566 25.1512 20.1566C25.4288 20.1566 25.6247 20.3731 25.6247 20.6707C25.6247 20.953 25.4288 21.1849 25.1512 21.1849C24.8584 21.1675 24.6777 20.951 24.6777 20.6707ZM20.5818 19.8396C20.1255 19.8396 19.7984 20.172 19.7984 20.6688C19.7984 21.1675 20.1255 21.4981 20.5989 21.4981C20.8271 21.4981 21.0553 21.4323 21.236 21.2816L21.0724 21.0322C20.9412 21.1327 20.7777 21.1984 20.6161 21.1984C20.4031 21.1984 20.192 21.0979 20.1426 20.8176H21.3006C21.3006 20.7674 21.3006 20.7345 21.3006 20.6843C21.3158 20.172 21.0211 19.8396 20.5818 19.8396ZM20.5818 20.1392C20.7948 20.1392 20.9412 20.2725 20.9735 20.52H20.1578C20.1901 20.3054 20.3365 20.1392 20.5818 20.1392ZM29.0854 20.6707V19.2442H28.7432V20.0734C28.6291 19.9246 28.4655 19.8415 28.2526 19.8415C27.8114 19.8415 27.4691 20.1894 27.4691 20.6707C27.4691 21.1521 27.8114 21.5 28.2526 21.5C28.4807 21.5 28.6443 21.4169 28.7432 21.268V21.4671H29.0854V20.6707ZM27.8285 20.6707C27.8285 20.3885 28.0073 20.1566 28.302 20.1566C28.5796 20.1566 28.7755 20.3731 28.7755 20.6707C28.7755 20.953 28.5796 21.1849 28.302 21.1849C28.0073 21.1675 27.8285 20.951 27.8285 20.6707ZM16.37 20.6707V19.8744H16.0277V20.0734C15.9136 19.9246 15.7501 19.8415 15.5371 19.8415C15.0959 19.8415 14.7537 20.1894 14.7537 20.6707C14.7537 21.1521 15.0959 21.5 15.5371 21.5C15.7653 21.5 15.9288 21.4169 16.0277 21.268V21.4671H16.37V20.6707ZM15.0978 20.6707C15.0978 20.3885 15.2766 20.1566 15.5713 20.1566C15.8489 20.1566 16.0448 20.3731 16.0448 20.6707C16.0448 20.953 15.8489 21.1849 15.5713 21.1849C15.2766 21.1675 15.0978 20.951 15.0978 20.6707Z" fill="black"/>
<path d="M23.0632 7.77771H17.9215V17.1682H23.0632V7.77771Z" fill="#FF5A00"/>
<path d="M18.2638 12.4729C18.2638 10.5651 19.1461 8.87178 20.5 7.77771C19.5036 6.98131 18.2467 6.5 16.8757 6.5C13.6279 6.5 11 9.17139 11 12.4729C11 15.7745 13.6279 18.4459 16.8757 18.4459C18.2467 18.4459 19.5036 17.9646 20.5 17.1682C19.1442 16.0896 18.2638 14.3808 18.2638 12.4729Z" fill="#EB001B"/>
<path d="M30 12.4729C30 15.7745 27.3721 18.4459 24.1243 18.4459C22.7533 18.4459 21.4964 17.9646 20.5 17.1682C21.871 16.0722 22.7362 14.3808 22.7362 12.4729C22.7362 10.5651 21.8539 8.87178 20.5 7.77771C21.4945 6.98131 22.7514 6.5 24.1224 6.5C27.3721 6.5 30 9.18879 30 12.4729Z" fill="#F79E1B"/>
</g>
<defs>
<filter id="filter0_d_1_397" x="0" y="0" width="41" height="28" filterUnits="userSpaceOnUse" color-interpolation-filters="sRGB">
<feFlood flood-opacity="0" result="BackgroundImageFix"/>
<feColorMatrix in="SourceAlpha" type="matrix" values="0 0 0 0 0 0 0 0 0 0 0 0 0 0 0 0 0 0 127 0" result="hardAlpha"/>
<feOffset/>
<feGaussianBlur stdDeviation="1"/>
<feComposite in2="hardAlpha" operator="out"/>
<feColorMatrix type="matrix" values="0 0 0 0 0 0 0 0 0 0 0 0 0 0 0 0 0 0 0.25 0"/>
<feBlend mode="normal" in2="BackgroundImageFix" result="effect1_dropShadow_1_397"/>
<feBlend mode="normal" in="SourceGraphic" in2="effect1_dropShadow_1_397" result="shape"/>
</filter>
<clipPath id="clip0_1_397">
<rect width="19" height="15" fill="white" transform="translate(11 6.5)"/>
</clipPath>
</defs>
</svg>
