<svg width="41" height="28" viewBox="0 0 41 28" fill="none" xmlns="http://www.w3.org/2000/svg">
<g filter="url(#filter0_d_1_376)">
<rect x="2" y="2" width="37" height="24" rx="3" fill="white"/>
</g>
<g clip-path="url(#clip0_1_376)">
<path d="M18.8333 17.9198H16.8081L18.0748 10.141H20.0999L18.8333 17.9198Z" fill="#00579F"/>
<path d="M26.1747 10.3312C25.7752 10.1738 25.1417 9.99999 24.3583 9.99999C22.3584 9.99999 20.95 11.0592 20.9414 12.5735C20.9248 13.6907 21.9497 14.3113 22.7163 14.6838C23.4998 15.0645 23.7661 15.313 23.7661 15.6523C23.7582 16.1734 23.133 16.4136 22.5499 16.4136C21.7414 16.4136 21.3082 16.2898 20.6498 15.9998L20.3831 15.8755L20.0997 17.6217C20.5747 17.8366 21.4498 18.0274 22.3584 18.0357C24.4833 18.0357 25.8667 16.9929 25.8831 15.3792C25.8912 14.4937 25.35 13.8151 24.1832 13.2607C23.4749 12.9048 23.0411 12.6648 23.0411 12.3006C23.0494 11.9695 23.408 11.6305 24.2076 11.6305C24.8659 11.6138 25.3497 11.771 25.7161 11.9283L25.8993 12.0109L26.1747 10.3312Z" fill="#00579F"/>
<path d="M28.8664 15.164C29.0332 14.7172 29.675 12.9876 29.675 12.9876C29.6666 13.0042 29.8414 12.5325 29.9414 12.2429L30.083 12.9131C30.083 12.9131 30.4665 14.7751 30.5497 15.164C30.2332 15.164 29.2664 15.164 28.8664 15.164ZM31.3663 10.141H29.7998C29.3167 10.141 28.9497 10.2816 28.7413 10.7864L25.7332 17.9197H27.8581C27.8581 17.9197 28.208 16.9596 28.2831 16.7528C28.5163 16.7528 30.5834 16.7528 30.8833 16.7528C30.9414 17.0259 31.1249 17.9197 31.1249 17.9197H33.0001L31.3663 10.141Z" fill="#00579F"/>
<path d="M15.1167 10.141L13.1334 15.4454L12.9166 14.3696C12.55 13.1283 11.4 11.7796 10.1167 11.109L11.9333 17.9115H14.0749L17.2581 10.141H15.1167Z" fill="#00579F"/>
<path d="M11.2916 10.141H8.03333L8 10.2982C10.5417 10.9437 12.225 12.4997 12.9166 14.3699L12.2083 10.7949C12.0917 10.2981 11.7333 10.1574 11.2916 10.141Z" fill="#FAA61A"/>
</g>
<defs>
<filter id="filter0_d_1_376" x="0" y="0" width="41" height="28" filterUnits="userSpaceOnUse" color-interpolation-filters="sRGB">
<feFlood flood-opacity="0" result="BackgroundImageFix"/>
<feColorMatrix in="SourceAlpha" type="matrix" values="0 0 0 0 0 0 0 0 0 0 0 0 0 0 0 0 0 0 127 0" result="hardAlpha"/>
<feOffset/>
<feGaussianBlur stdDeviation="1"/>
<feComposite in2="hardAlpha" operator="out"/>
<feColorMatrix type="matrix" values="0 0 0 0 0 0 0 0 0 0 0 0 0 0 0 0 0 0 0.25 0"/>
<feBlend mode="normal" in2="BackgroundImageFix" result="effect1_dropShadow_1_376"/>
<feBlend mode="normal" in="SourceGraphic" in2="effect1_dropShadow_1_376" result="shape"/>
</filter>
<clipPath id="clip0_1_376">
<rect width="25" height="8.03571" fill="white" transform="translate(8 10)"/>
</clipPath>
</defs>
</svg>
